HIERARCHY
ROOT Hips
{
	OFFSET 62.890800 8.863803 43.568401
	CHANNELS 6 Xposition Yposition Zposition Zrotation Xrotation Yrotation
	JOINT Chest
	{
		OFFSET -0.160400 1.630001 7.806301
		CHANNELS 6 Xposition Yposition Zposition Zrotation Xrotation Yrotation
		JOINT Chest2
		{
			OFFSET 0.000000 0.000000 3.197998
			CHANNELS 6 Xposition Yposition Zposition Zrotation Xrotation Yrotation
			JOINT Neck
			{
				OFFSET 0.000000 0.000001 7.440701
				CHANNELS 6 Xposition Yposition Zposition Zrotation Xrotation Yrotation
				JOINT Head
				{
					OFFSET 0.000000 0.000000 2.173901
					CHANNELS 6 Xposition Yposition Zposition Zrotation Xrotation Yrotation
					End Site
					{
						OFFSET 0.000000 0.000001 10.420303
					}
				}
			}
			JOINT LeftCollar
			{
				OFFSET 2.426399 -1.880099 4.759399
				CHANNELS 6 Xposition Yposition Zposition Zrotation Xrotation Yrotation
				JOINT LeftShoulder
				{
					OFFSET 4.420197 0.000000 0.000000
					CHANNELS 6 Xposition Yposition Zposition Zrotation Xrotation Yrotation
					JOINT LeftElbow
					{
						OFFSET 0.000000 -0.000001 -10.347099
						CHANNELS 6 Xposition Yposition Zposition Zrotation Xrotation Yrotation
						JOINT LeftWrist
						{
							OFFSET 0.000000 -0.000001 -12.496300
							CHANNELS 6 Xposition Yposition Zposition Zrotation Xrotation Yrotation
							End Site
							{
								OFFSET 0.000000 0.000000 -2.173901
							}
						}
					}
				}
			}
			JOINT RightCollar
			{
				OFFSET -2.781502 -1.903799 5.072601
				CHANNELS 6 Xposition Yposition Zposition Zrotation Xrotation Yrotation
				JOINT RightShoulder
				{
					OFFSET -4.012100 0.000000 0.000000
					CHANNELS 6 Xposition Yposition Zposition Zrotation Xrotation Yrotation
					JOINT RightElbow
					{
						OFFSET 0.000000 -0.000001 -10.346600
						CHANNELS 6 Xposition Yposition Zposition Zrotation Xrotation Yrotation
						JOINT RightWrist
						{
							OFFSET 0.000000 -0.000001 -12.562599
							CHANNELS 6 Xposition Yposition Zposition Zrotation Xrotation Yrotation
							End Site
							{
								OFFSET 0.000000 0.000000 -2.173901
							}
						}
					}
				}
			}
		}
	}
	JOINT LeftHip
	{
		OFFSET 2.047997 -0.047200 -2.693199
		CHANNELS 6 Xposition Yposition Zposition Zrotation Xrotation Yrotation
		JOINT LeftKnee
		{
			OFFSET 0.000000 -0.000001 -18.824400
			CHANNELS 6 Xposition Yposition Zposition Zrotation Xrotation Yrotation
			JOINT LeftAnkle
			{
				OFFSET 0.000000 -0.000002 -19.078199
				CHANNELS 6 Xposition Yposition Zposition Zrotation Xrotation Yrotation
				End Site
				{
					OFFSET 0.000000 -9.342100 0.000001
				}
			}
		}
	}
	JOINT RightHip
	{
		OFFSET -2.129898 -0.022300 -2.538300
		CHANNELS 6 Xposition Yposition Zposition Zrotation Xrotation Yrotation
		JOINT RightKnee
		{
			OFFSET 0.000000 -0.000001 -18.644600
			CHANNELS 6 Xposition Yposition Zposition Zrotation Xrotation Yrotation
			JOINT RightAnkle
			{
				OFFSET 0.000000 -0.000002 -18.801399
				CHANNELS 6 Xposition Yposition Zposition Zrotation Xrotation Yrotation
				End Site
				{
					OFFSET 0.000000 -8.914600 0.000001
				}
			}
		}
	}
}
MOTION
Frames: 6
Frame Time: 0.041667
-48.009216 53.278912 43.645058 410.791810 12.173062 -1.971090 -0.160396 1.629995 7.806303 4.789435 12.781308 0.772923 0.000008 -0.000012 3.198003 0.072558 -5.954708 0.176909 -0.000014 -0.000001 7.440705 -20.029557 7.543212 -1.142528 -0.000003 0.000003 2.173916 -3.057865 0.416221 -4.960162 2.426402 -1.880103 4.759402 -178.316746 172.905105 -181.535377 4.420206 0.000001 0.000000 -7.796009 4.331758 -86.124587 0.000007 0.000008 -10.347097 473.726840 -215.812012 -654.246499 0.000012 -0.000004 -12.496302 -30.841299 117.765657 151.284879 -2.781501 -1.903800 5.072605 -175.889788 -190.451424 170.379369 -4.012101 -0.000010 -0.000001 -3.407365 2.243346 449.804321 0.000003 -0.000003 -10.346584 -392.427508 -1.766989 0.332350 0.000004 0.000001 -12.562597 1641.218724 546.397430 -871.626121 2.047996 -0.047209 -2.693203 412.033101 -37.590448 25.696377 0.000002 0.000002 -18.824408 145.873484 129.852360 -177.863112 -0.000001 -0.000002 -19.078203 -391.487974 15.204563 -2.473931 -2.129891 -0.022300 -2.538303 -405.232856 -29.127130 -9.135473 0.000001 -0.000004 -18.644600 -140.195957 -237.439615 160.641719 -0.000000 -0.000007 -18.801395 174.576534 168.876359 182.590996
-48.225906 53.707214 43.602459 409.801952 12.446562 -2.062363 -0.160408 1.629997 7.806303 5.298167 12.759879 0.638736 0.000008 -0.000004 3.198003 -0.138349 -5.921661 0.173620 -0.000007 0.000004 7.440698 -19.871373 7.448573 -1.142796 -0.000005 -0.000003 2.173904 -2.975183 0.277020 -5.017406 2.426392 -1.880095 4.759403 -178.271079 172.819468 -181.563012 4.420196 -0.000009 0.000001 -7.779401 5.395823 -85.380466 0.000005 0.000006 -10.347105 474.067584 -216.964156 -655.058964 0.000000 0.000007 -12.496297 -28.182634 118.496214 148.180449 -2.781506 -1.903799 5.072607 -176.081034 -190.257078 170.614451 -4.012090 -0.000002 0.000004 -2.462524 0.908913 450.640309 0.000007 0.000002 -10.346589 -390.896917 -1.926741 0.170394 -0.000004 0.000005 -12.562600 1642.287185 546.578512 -871.948998 2.047988 -0.047202 -2.693201 411.349318 -37.245343 24.708337 0.000001 0.000004 -18.824406 140.910805 128.181422 -175.618739 -0.000004 -0.000007 -19.078199 -388.236313 13.522913 -4.431140 -2.129904 -0.022298 -2.538300 -407.616947 -29.752830 -10.837252 0.000001 -0.000002 -18.644596 -136.937875 -237.489939 160.122925 0.000005 -0.000002 -18.801397 174.713316 169.354909 183.225316
-48.413605 54.151814 43.558559 408.619755 12.738097 -2.126470 -0.160396 1.630001 7.806304 5.820789 12.726999 0.465316 0.000005 -0.000000 3.197999 -0.349892 -5.907284 0.170493 -0.000010 0.000013 7.440705 -19.611688 7.393361 -1.155559 0.000004 0.000003 2.173912 -2.750012 0.133253 -5.029304 2.426403 -1.880084 4.759402 -178.299711 172.685801 -181.537057 4.420196 0.000005 -0.000011 -7.838770 6.681179 -84.575487 -0.000001 0.000014 -10.347103 474.655636 -218.228410 -655.966232 -0.000003 -0.000006 -12.496284 -28.057883 117.867263 149.073660 -2.781497 -1.903788 5.072600 -176.174075 -190.116075 170.810272 -4.012098 0.000010 -0.000000 -1.470623 -0.568171 451.556483 0.000006 0.000002 -10.346592 -389.245268 -2.143765 -0.033122 -0.000000 0.000011 -12.562597 1643.565250 546.832813 -871.998121 2.048009 -0.047191 -2.693202 410.275093 -36.776713 23.399439 0.000002 0.000003 -18.824398 136.193986 126.790523 -173.105626 -0.000002 -0.000007 -19.078199 -385.370256 11.832320 -5.847793 -2.129893 -0.022300 -2.538300 -412.177109 -30.295266 -13.695074 0.000003 0.000002 -18.644600 -131.490144 -237.914641 159.033073 0.000002 -0.000001 -18.801401 175.222807 169.640452 183.780761
-48.576012 54.611919 43.516754 407.292431 13.043892 -2.192171 -0.160402 1.629992 7.806315 6.307507 12.726368 0.302548 0.000004 0.000008 3.198006 -0.542000 -5.916285 0.167943 -0.000005 0.000007 7.440693 -19.272801 7.358569 -1.201038 -0.000007 0.000004 2.173910 -2.640963 0.003668 -5.062180 2.426395 -1.880098 4.759388 -178.178325 172.582420 -182.029186 4.420204 0.000002 0.000009 -8.273780 8.196514 -83.247616 0.000012 0.000005 -10.347106 475.486351 -219.480274 -656.923278 0.000005 -0.000005 -12.496291 -26.992641 117.763444 148.464707 -2.781509 -1.903798 5.072595 -176.230984 -189.999580 170.999728 -4.012094 0.000004 -0.000001 -0.357057 -1.977251 452.499022 0.000003 -0.000004 -10.346594 -387.677822 -2.382163 -0.250565 -0.000003 -0.000003 -12.562597 1644.912819 547.044822 -871.898509 2.047994 -0.047208 -2.693195 408.855615 -36.153127 21.857111 0.000000 0.000005 -18.824406 132.355051 125.811060 -170.790806 -0.000001 0.000002 -19.078199 -383.174186 10.055549 -6.442798 -2.129897 -0.022306 -2.538291 -414.352169 -31.344086 -15.420670 -0.000002 0.000003 -18.644600 -128.384088 -238.473924 157.872268 0.000000 -0.000004 -18.801399 176.091115 169.489696 184.296891
-48.718994 55.085415 43.479351 405.890248 13.382910 -2.269039 -0.160395 1.629997 7.806305 6.752235 12.759672 0.167900 0.000002 0.000000 3.197999 -0.729286 -5.945630 0.165870 -0.000006 0.000014 7.440705 -18.855944 7.330162 -1.320077 0.000001 0.000006 2.173915 -2.533787 -0.123997 -5.062254 2.426401 -1.880083 4.759404 -178.296419 172.445406 -181.828119 4.420205 0.000003 -0.000004 -8.473181 9.960234 -82.502497 -0.000006 -0.000000 -10.347097 476.712288 -220.925351 -658.166427 -0.000003 -0.000009 -12.496286 -25.816211 117.686632 147.696980 -2.781506 -1.903788 5.072609 -176.308083 -189.858318 171.145594 -4.012105 -0.000000 -0.000004 0.890280 -3.162797 453.502704 0.000002 -0.000001 -10.346590 -386.321346 -2.621957 -0.486321 0.000002 -0.000001 -12.562599 1646.370873 547.222298 -871.721088 2.047997 -0.047199 -2.693195 407.212654 -35.393398 20.242206 0.000005 0.000003 -18.824400 130.098438 125.249687 -169.298697 -0.000001 -0.000002 -19.078201 -382.007344 8.349069 -6.469390 -2.129892 -0.022302 -2.538300 -418.516836 -32.212490 -18.256522 -0.000001 0.000000 -18.644596 -123.366139 -239.233523 156.127674 0.000005 -0.000003 -18.801399 177.297859 169.055269 184.558569
-48.849228 55.569614 43.446957 404.488830 13.758876 -2.357647 -0.160401 1.630002 7.806306 7.066284 12.837701 0.064491 0.000008 0.000001 3.198012 -0.862692 -5.990810 0.165580 -0.000008 0.000004 7.440694 -18.335438 7.275018 -1.549191 -0.000002 0.000004 2.173916 -2.469540 -0.255220 -5.021503 2.426394 -1.880098 4.759391 -178.446902 172.312586 -181.662418 4.420201 0.000001 -0.000002 -8.926584 11.691570 -81.867221 0.000007 0.000009 -10.347100 477.657258 -222.169484 -659.120304 -0.000000 0.000003 -12.496304 -24.528227 117.642454 146.858821 -2.781510 -1.903800 5.072600 -176.393993 -189.744923 171.288317 -4.012097 -0.000003 -0.000000 2.244280 -4.099310 454.518162 0.000008 0.000001 -10.346585 -385.277065 -2.851132 -0.730942 -0.000003 -0.000002 -12.562593 1647.938866 547.355405 -871.515746 2.047996 -0.047202 -2.693198 405.387027 -34.543091 18.688309 0.000011 0.000005 -18.824404 129.204667 125.091131 -168.580489 -0.000001 -0.000009 -19.078197 -381.555950 6.724335 -6.122941 -2.129903 -0.022300 -2.538298 -423.028804 -32.982533 -21.414728 -0.000000 0.000003 -18.644604 -117.903887 -240.023421 153.922056 -0.000007 0.000004 -18.801397 178.709086 168.433380 184.471866
